<?xml version="1.0" standalone="no"?>
<!DOCTYPE svg PUBLIC "-//W3C//DTD SVG 20010904//EN"
 "http://www.w3.org/TR/2001/REC-SVG-20010904/DTD/svg10.dtd">
<svg version="1.0" xmlns="http://www.w3.org/2000/svg"
 width="50.000000pt" height="50.000000pt" viewBox="0 0 50.000000 50.000000"
 preserveAspectRatio="xMidYMid meet">
<metadata>
Created by potrace 1.16, written by Peter Selinger 2001-2019
</metadata>
<g transform="translate(0.000000,50.000000) scale(0.100000,-0.100000)"
fill="#000000" stroke="none">
<path d="M246 459 c-11 -10 -28 -19 -37 -19 -27 0 -42 -35 -27 -60 10 -16 10
-24 0 -40 -15 -25 0 -60 26 -60 10 0 28 -9 40 -20 27 -25 57 -25 84 0 12 11
30 20 40 20 26 0 41 35 26 60 -10 16 -10 24 0 40 15 25 0 60 -26 60 -10 0 -28
9 -40 20 -26 25 -61 25 -86 -1z"/>
<path d="M86 279 c-11 -10 -28 -19 -37 -19 -27 0 -42 -35 -27 -60 10 -16 10
-24 0 -40 -15 -25 0 -60 26 -60 10 0 28 -9 40 -20 27 -25 57 -25 84 0 12 11
30 20 40 20 26 0 41 35 26 60 -10 16 -10 24 0 40 15 25 0 60 -26 60 -10 0 -28
9 -40 20 -26 25 -61 25 -86 -1z"/>
<path d="M316 229 c-11 -10 -28 -19 -37 -19 -27 0 -42 -35 -27 -60 10 -16 10
-24 0 -40 -15 -25 0 -60 26 -60 10 0 28 -9 40 -20 27 -25 57 -25 84 0 12 11
30 20 40 20 26 0 41 35 26 60 -10 16 -10 24 0 40 15 25 0 60 -26 60 -10 0 -28
9 -40 20 -26 25 -61 25 -86 -1z"/>
</g>
</svg>
