<?xml version="1.0" standalone="no"?>
<!DOCTYPE svg PUBLIC "-//W3C//DTD SVG 20010904//EN"
 "http://www.w3.org/TR/2001/REC-SVG-20010904/DTD/svg10.dtd">
<svg version="1.0" xmlns="http://www.w3.org/2000/svg"
 width="50.000000pt" height="50.000000pt" viewBox="0 0 50.000000 50.000000"
 preserveAspectRatio="xMidYMid meet">
<metadata>
Created by potrace 1.16, written by Peter Selinger 2001-2019
</metadata>
<g transform="translate(0.000000,50.000000) scale(0.100000,-0.100000)"
fill="#000000" stroke="none">
<path d="M420 470 c-6 -11 -40 -34 -75 -51 -67 -32 -105 -68 -105 -102 0 -16
-4 -18 -22 -12 -13 4 -42 10 -66 12 -39 5 -46 2 -77 -31 -43 -46 -75 -131 -75
-201 0 -67 16 -85 74 -85 34 0 54 8 99 40 30 22 65 40 77 40 12 0 47 -18 77
-40 45 -32 65 -40 99 -40 58 0 74 18 74 85 0 69 -32 155 -74 200 -27 28 -41
35 -70 35 -21 0 -46 -5 -58 -11 -11 -6 -22 -8 -25 -5 -14 14 33 58 99 93 61
32 74 43 76 66 4 32 -13 36 -28 7z"/>
</g>
</svg>
