<?xml version="1.0" standalone="no"?>
<!DOCTYPE svg PUBLIC "-//W3C//DTD SVG 20010904//EN"
 "http://www.w3.org/TR/2001/REC-SVG-20010904/DTD/svg10.dtd">
<svg version="1.0" xmlns="http://www.w3.org/2000/svg"
 width="852.000000pt" height="480.000000pt" viewBox="0 0 852.000000 480.000000"
 preserveAspectRatio="xMidYMid meet">
<metadata>
Created by potrace 1.16, written by Peter Selinger 2001-2019
</metadata>
<g transform="translate(0.000000,480.000000) scale(0.100000,-0.100000)"
fill="#000000" stroke="none">
<path d="M4864 2775 c-12 -19 -15 -38 -11 -73 6 -50 32 -182 43 -215 13 -42
-17 -8 -85 95 -73 111 -93 127 -145 114 -28 -7 -51 -55 -42 -89 5 -22 58 -65
184 -151 23 -16 40 -31 38 -34 -3 -2 -66 10 -141 28 l-137 33 -26 -20 c-15
-11 -29 -29 -30 -39 -2 -10 -7 -22 -11 -26 -3 -4 -48 4 -100 17 -97 26 -260
35 -346 20 -59 -10 -151 -44 -225 -84 -71 -38 -279 -190 -350 -257 -65 -61
-107 -94 -117 -94 -5 0 -34 30 -64 66 -44 54 -109 114 -174 161 -59 44 -184
83 -261 83 -97 0 -229 -62 -330 -157 -96 -89 -192 -220 -364 -498 -98 -158
-180 -287 -190 -295 -3 -3 -18 -23 -35 -45 -91 -124 -183 -195 -249 -195 -22
0 -58 -6 -81 -14 -22 -8 -70 -22 -107 -31 -78 -20 -129 -51 -247 -149 l-84
-69 54 -16 c94 -27 132 -21 246 36 98 49 135 56 93 18 -40 -36 -14 -77 58 -91
32 -6 32 -7 32 -63 l0 -57 -88 -12 c-106 -14 -200 -45 -326 -107 -54 -27 -102
-45 -111 -41 -9 3 -13 2 -10 -4 3 -6 -2 -13 -12 -16 -10 -3 -31 -11 -48 -18
-19 -7 -87 -11 -181 -11 -125 1 -154 4 -168 17 -35 36 -310 50 -386 20 -14 -5
-51 -17 -82 -26 -32 -10 -58 -21 -58 -27 0 -5 -21 -19 -47 -30 -27 -11 -69
-30 -96 -41 l-47 -22 0 -183 0 -183 1598 0 c878 0 2795 3 4260 7 l2662 6 0
159 0 158 -1985 -2 c-1913 -3 -1985 -2 -1985 15 0 13 -5 17 -18 13 -11 -4 -27
2 -41 15 -21 19 -21 22 -7 45 17 24 22 64 9 64 -14 0 -31 48 -22 62 22 34 -3
98 -38 98 -6 0 -13 5 -15 11 -2 6 -35 14 -74 16 -67 5 -71 4 -114 -29 -51 -39
-59 -61 -34 -89 17 -19 17 -21 -4 -49 -23 -31 -29 -65 -12 -75 13 -8 13 -48 0
-61 -6 -6 -31 -9 -55 -6 -38 3 -45 1 -45 -14 0 -13 -7 -9 -25 16 -26 36 -31
64 -16 103 6 15 4 44 -5 83 -10 43 -13 127 -11 309 l2 250 25 0 c14 1 52 -3
85 -7 93 -13 130 6 105 53 -13 23 -51 25 -110 4 -50 -18 -50 -18 -50 -6 0 5
23 25 50 45 54 39 67 77 33 94 -30 16 -57 -3 -93 -67 -19 -35 -36 -57 -38 -51
-2 6 1 39 7 74 13 74 9 92 -25 103 -24 8 -23 10 40 61 152 121 294 206 425
252 89 31 221 32 305 1 116 -41 278 -151 391 -262 32 -33 65 -57 72 -55 7 3
10 -1 6 -10 -3 -7 -1 -14 3 -14 5 0 38 -28 74 -62 86 -81 179 -148 196 -141 8
3 14 1 14 -5 0 -29 113 -11 147 24 8 7 24 21 36 29 19 13 20 17 7 25 -12 8
-10 10 9 10 12 0 39 15 60 34 20 19 55 52 79 74 38 36 42 44 42 86 0 25 4 46
8 46 5 0 6 -14 4 -31 -3 -22 -1 -30 7 -25 6 4 11 17 12 29 0 12 3 16 6 10 2
-7 9 -13 15 -13 6 0 7 7 4 16 -4 12 -2 15 9 10 9 -3 15 0 15 8 0 8 6 16 13 19
10 4 10 7 0 18 -19 19 -16 28 10 25 13 -2 34 9 52 27 17 16 24 26 18 23 -18
-10 -16 9 2 24 11 9 15 9 15 1 0 -7 5 -9 11 -5 8 5 6 10 -5 16 -9 5 -21 6 -26
3 -6 -4 -10 52 -10 159 0 141 -2 166 -15 166 -8 0 -15 5 -15 10 0 6 7 10 15
10 8 0 15 7 15 16 0 11 -6 14 -20 9 -10 -3 -34 -2 -53 3 -28 8 -38 6 -63 -14
-16 -13 -23 -24 -15 -24 8 0 20 8 27 18 13 16 13 16 14 0 0 -21 16 -24 23 -5
4 9 6 9 6 0 1 -7 -9 -17 -20 -24 -15 -8 -19 -8 -15 0 9 14 4 14 -28 1 -14 -5
-25 -6 -24 -2 1 4 -2 14 -6 23 -4 9 -6 43 -4 75 l3 59 60 -3 c33 -2 65 -9 70
-16 11 -14 121 -16 143 -2 18 11 15 81 -4 97 -14 11 -29 10 -98 -8 -44 -12
-89 -24 -98 -28 -37 -15 -16 12 43 55 67 48 83 71 74 100 -7 21 -45 36 -68 27
-7 -3 -35 -41 -62 -85 -27 -45 -51 -80 -52 -78 -2 2 3 45 12 97 13 83 13 96 0
116 -19 28 -46 29 -70 3 -17 -19 -17 -23 -1 -106 10 -47 15 -88 12 -91 -2 -3
-23 25 -46 61 -54 85 -82 102 -114 70 -34 -34 -20 -61 59 -116 41 -28 73 -54
70 -56 -2 -3 -43 5 -90 17 -80 21 -88 21 -111 6 -43 -28 -21 -85 34 -85 24 0
109 11 185 25 l27 5 0 -83 c0 -89 -7 -130 -21 -121 -9 5 -88 -33 -99 -48 -3
-3 -23 -9 -45 -13 -22 -4 -47 -12 -55 -17 -11 -7 -10 -8 8 -5 12 3 20 2 17 -3
-9 -14 -54 -18 -59 -4 -3 7 -15 11 -27 9 -28 -5 -38 -15 -16 -15 10 0 17 -5
17 -10 0 -12 -35 4 -45 20 -3 6 -18 10 -32 10 -40 0 -88 17 -203 74 -58 28
-111 50 -117 50 -7 -1 -11 1 -9 5 3 4 -13 18 -35 31 -21 14 -39 28 -39 32 0 5
-6 8 -12 8 -7 1 -47 27 -88 58 l-75 57 -3 129 -3 129 53 -6 c29 -2 108 -10
175 -17 108 -11 125 -11 147 3 45 30 41 106 -8 128 -27 12 -58 7 -200 -35 -49
-15 -91 -25 -93 -22 -2 2 38 35 89 74 119 89 130 102 126 143 -4 46 -46 75
-89 63 -28 -8 -43 -28 -108 -137 -42 -70 -77 -121 -79 -113 -2 8 6 65 17 127
26 140 26 170 2 197 -27 32 -85 30 -107 -3z m46 -516 c0 -92 -2 -110 -14 -106
-8 3 -58 35 -110 71 -53 36 -100 66 -105 66 -4 0 -16 9 -26 20 -22 24 -20 25
100 40 49 6 92 13 94 16 2 2 17 4 33 4 l28 0 0 -111z m-1817 -834 c120 -25
183 -60 324 -182 43 -37 90 -65 157 -93 53 -22 102 -40 110 -40 8 0 45 25 83
55 37 30 71 55 76 55 12 0 118 -73 112 -78 -2 -3 -36 3 -75 12 -78 19 -100 13
-100 -29 0 -39 18 -43 118 -31 51 7 95 10 97 7 3 -2 5 -40 5 -84 l0 -79 -39
31 c-86 69 -148 72 -235 12 -47 -33 -56 -55 -35 -90 10 -14 7 -24 -11 -49 -23
-31 -23 -32 -5 -65 14 -27 15 -38 6 -55 -6 -12 -16 -22 -20 -22 -18 0 -18 -41
0 -64 25 -32 24 -49 -6 -84 -25 -30 -34 -85 -15 -97 19 -12 11 -61 -14 -84
-22 -21 -31 -22 -149 -19 -96 2 -123 0 -120 -10 3 -6 -2 -12 -12 -12 -9 0 -13
5 -10 10 4 6 -7 10 -24 10 -17 0 -31 -4 -31 -10 0 -5 8 -10 18 -10 9 0 24 -5
32 -11 11 -8 8 -9 -15 -4 -16 3 -35 13 -41 21 -8 10 -20 13 -36 9 -16 -4 -41
2 -73 19 -64 34 -143 35 -255 1 -46 -14 -85 -25 -87 -25 -9 0 -43 88 -43 112
0 16 -8 43 -17 61 -9 18 -16 45 -15 60 2 16 -7 44 -19 63 -13 21 -19 44 -16
57 6 25 -71 183 -88 181 -18 -2 -95 -157 -89 -180 3 -12 -4 -40 -15 -62 -12
-23 -20 -52 -19 -65 1 -13 -6 -40 -16 -61 -10 -21 -15 -47 -12 -59 5 -19 -21
-77 -34 -77 -4 0 -31 21 -61 47 -93 80 -171 134 -244 168 -76 36 -210 75 -259
75 -45 0 -150 23 -158 35 -4 5 -8 31 -8 58 0 42 2 47 23 47 32 0 87 36 87 58
0 9 -7 28 -16 41 -14 19 -14 26 -3 48 10 19 10 28 1 43 -10 17 -7 19 35 26 67
10 223 -2 267 -20 54 -22 76 -20 108 11 20 19 28 37 28 62 0 20 7 45 15 55 8
11 15 31 15 45 0 21 39 110 56 130 5 6 34 -27 34 -39 0 -7 9 -25 21 -41 11
-16 18 -37 15 -45 -15 -39 13 -28 125 47 205 138 370 216 464 218 22 0 71 -6
108 -14z"/>
<path d="M8458 2563 c-32 -51 -58 -96 -58 -100 1 -13 109 -127 115 -121 3 3 4
74 3 159 l-3 154 -57 -92z"/>
</g>
</svg>
